<?xml version="1.0" encoding="UTF-8" standalone="no"?>
<!-- Created with Inkscape (http://www.inkscape.org/) -->

<svg
   xmlns:dc="http://purl.org/dc/elements/1.1/"
   xmlns:cc="http://creativecommons.org/ns#"
   xmlns:rdf="http://www.w3.org/1999/02/22-rdf-syntax-ns#"
   xmlns:svg="http://www.w3.org/2000/svg"
   xmlns="http://www.w3.org/2000/svg"
   xmlns:sodipodi="http://sodipodi.sourceforge.net/DTD/sodipodi-0.dtd"
   xmlns:inkscape="http://www.inkscape.org/namespaces/inkscape"
   width="210mm"
   height="297mm"
   viewBox="0 0 744.09448819 1052.3622047"
   id="svg2"
   version="1.1"
   inkscape:version="0.91 r13725"
   sodipodi:docname="coding-services-icon.svg"
   inkscape:export-filename="/Users/pr/yelluw/Icons/custom/256/png/coding-services-icon.png"
   inkscape:export-xdpi="30"
   inkscape:export-ydpi="30">
  <defs
     id="defs4" />
  <sodipodi:namedview
     id="base"
     pagecolor="#ffffff"
     bordercolor="#666666"
     borderopacity="1.0"
     inkscape:pageopacity="0.0"
     inkscape:pageshadow="2"
     inkscape:zoom="0.24748737"
     inkscape:cx="395.7173"
     inkscape:cy="365.97359"
     inkscape:document-units="px"
     inkscape:current-layer="g6396"
     showgrid="false"
     inkscape:window-width="1280"
     inkscape:window-height="715"
     inkscape:window-x="0"
     inkscape:window-y="0"
     inkscape:window-maximized="1"
     showguides="false" />
  <metadata
     id="metadata7">
    <rdf:RDF>
      <cc:Work
         rdf:about="">
        <dc:format>image/svg+xml</dc:format>
        <dc:type
           rdf:resource="http://purl.org/dc/dcmitype/StillImage" />
        <dc:title></dc:title>
      </cc:Work>
    </rdf:RDF>
  </metadata>
  <g
     inkscape:label="Layer 1"
     inkscape:groupmode="layer"
     id="layer1">
    <g
       id="g4292"
       inkscape:export-filename="/Users/pr/yelluw/Icons/custom/256/png/coding-services-icon.png"
       inkscape:export-xdpi="32.980415"
       inkscape:export-ydpi="32.980415"
       transform="translate(108.57143,242.85714)">
      <g
         id="g5870"
         transform="translate(208.57143,405.71429)"
         inkscape:export-filename="/Users/pr/yelluw/Icons/custom/256/png/brand-strategy.png"
         inkscape:export-xdpi="57.803967"
         inkscape:export-ydpi="57.803967">
        <g
           id="g6017">
          <g
             id="g6028"
             transform="translate(-1034.2857,-425.71429)">
            <ellipse
               style="opacity:1;fill:#f4d425;fill-opacity:1;fill-rule:nonzero;stroke:#000000;stroke-width:7.15999985;stroke-linejoin:miter;stroke-miterlimit:4;stroke-dasharray:none;stroke-dashoffset:0;stroke-opacity:1"
               id="path6007"
               cx="173.47578"
               cy="284.75253"
               rx="195.71428"
               ry="191.42857" />
            <path
               style="fill:#000000;stroke:#000000"
               d="m 165.65811,416.0948 c -4.72806,-1.70058 -7.08722,-3.7858 -9.113,-8.0548 -6.18268,-13.02903 9.66962,-27.26838 21.43937,-19.25796 7.61234,5.18091 9.68159,12.21619 5.80224,19.72712 -3.6333,7.03455 -11.04192,10.13457 -18.12861,7.58564 z m 11.4535,-3.13376 c 4.42273,-2.28708 7.28066,-9.16308 5.9156,-14.23254 -2.54847,-9.46429 -13.47627,-12.91832 -20.95671,-6.62394 -4.49982,3.78635 -5.70827,8.53625 -3.58573,14.09404 2.87814,7.53631 11.25165,10.5763 18.62684,6.76244 z m -12.1373,-5.429 c -3.05813,-3.05813 -2.72679,-9.28314 0.63486,-11.92742 1.44917,-1.13992 3.63848,-2.07258 4.86514,-2.07258 1.22666,0 3.41597,0.93266 4.86514,2.07258 2.04741,1.61049 2.63486,2.94821 2.63486,6 0,5.04707 -2.72505,7.92742 -7.5,7.92742 -2.16667,0 -4.2619,-0.7619 -5.5,-2 z m 9.17126,-1.65499 c 2.21305,-2.00278 2.39362,-6.63131 0.32566,-8.34757 -0.82669,-0.68609 -2.62531,-1.24744 -3.99692,-1.24744 -3.3647,0 -5.5,1.95815 -5.5,5.0437 0,5.27795 5.40465,7.96005 9.17126,4.55131 z m -57.9006,-28.26177 c -2.3984,-1.11543 -5.1025,-3.3991 -6.24626,-5.2751 -2.64249,-4.3342 -2.70131,-12.18579 -0.12297,-16.41408 l 1.89396,-3.10594 -11.67755,-21.39406 c -6.42265,-11.76673 -12.01926,-21.94214 -12.4369,-22.61201 -0.57207,-0.91756 -1.83341,-0.69614 -5.11403,0.89771 -4.64671,2.25754 -7.92141,1.88709 -7.39082,-0.8361 0.40865,-2.09728 20.63105,-13.46126 23.32391,-13.10687 3.58685,0.47204 2.38368,4.01254 -2.22811,6.55655 l -4.2281,2.33235 4.48276,8.18716 c 2.46552,4.50293 7.96817,14.6001 12.22811,22.43814 l 7.74534,14.25099 4.5,-0.56205 c 5.90681,-0.73775 12.57605,2.57774 15.17601,7.54447 6.84891,13.08357 -6.56588,27.30269 -19.90535,21.09884 z m 13.52708,-2.75654 c 3.1896,-1.9925 6.19478,-7.2447 6.19478,-10.8267 0,-1.65 -0.87683,-4.43805 -1.94852,-6.19567 -3.03885,-4.98386 -6.60041,-6.79699 -13.35912,-6.80091 l -5.91353,-0.003 -12.35371,-22.5 c -6.79455,-12.375 -12.3681,-23.17577 -12.38568,-24.00172 -0.0176,-0.82594 2.00119,-2.5803 4.48614,-3.89856 2.48496,-1.31827 4.33214,-2.58282 4.10484,-2.81011 -0.22729,-0.22729 -4.17293,1.61985 -8.7681,4.10476 -9.31989,5.03989 -14.99767,8.97892 -8.14468,5.65047 2.31559,-1.12466 4.83042,-2.04484 5.58851,-2.04484 0.76986,0 7.03221,10.40442 14.18559,23.5683 l 12.80725,23.5683 -2.14576,3.81786 c -7.05823,12.55842 5.70076,25.83801 17.65199,18.37224 z m -12.62343,-5.64115 c -2.76727,-2.94563 -2.84989,-8.00997 -0.17431,-10.68555 3.05813,-3.05813 9.28314,-2.72679 11.92742,0.63486 4.22969,5.37718 0.9374,12.36514 -5.82569,12.36514 -2.63011,0 -4.4037,-0.69253 -5.92742,-2.31445 z m 10.49315,-2.30078 c 1.53476,-2.34235 1.55996,-2.89016 0.24151,-5.25 -2.72517,-4.87767 -10.90897,-3.23365 -10.90897,2.19148 0,5.53976 7.61172,7.72216 10.66746,3.05852 z m 35.74384,9.72428 c -6.77175,-4.12937 -9.64382,-11.05191 -7.52263,-18.13182 2.17721,-7.26687 10.95659,-11.96319 18.48054,-9.88573 4.51866,1.24766 4.25636,1.51118 11.53783,-11.5915 13.28634,-23.90817 20.36793,-50.50595 20.36793,-76.5 0,-28.33718 -8.32257,-55.07452 -24.66777,-79.24843 -8.49987,-12.57098 -8.52578,-12.59899 -9.71465,-10.50156 -2.04337,3.60498 -3.72789,1.74919 -6.81009,-7.50247 -3.44576,-10.34298 -3.52119,-10.74753 -2.00381,-10.74753 2.22888,0 18.92135,8.33858 18.92135,9.45199 0,0.63906 -1.09628,1.58629 -2.43619,2.10497 l -2.43619,0.94304 5.90942,8 c 7.55943,10.23375 16.77955,28.08599 21.43341,41.49999 14.07782,40.57697 8.10578,88.52729 -16.17499,129.87126 -5.12536,8.72719 -5.41056,9.54516 -4.14954,11.90139 2.10153,3.92674 1.72245,11.58352 -0.73787,14.90402 -5.20845,7.02942 -13.62721,9.31649 -19.99675,5.43238 z m 11.2736,-1.17566 c 7.41413,-2.80914 10.36007,-9.50389 7.59184,-17.2527 l -1.72167,-4.8193 2.78119,-4.6807 c 5.6188,-9.45633 15.61147,-30.93604 18.57678,-39.93166 5.88489,-17.8525 7.47001,-27.90222 7.53134,-47.74903 0.0621,-20.09318 -1.07964,-27.51619 -6.94362,-45.14427 -4.39737,-13.21921 -10.73693,-25.71321 -20.00799,-39.43167 -4.12102,-6.09792 -7.49277,-11.69244 -7.49277,-12.43227 0,-0.73982 0.75801,-1.49111 1.68446,-1.66953 0.99291,-0.19122 -1.17093,-1.76087 -5.27062,-3.82332 l -6.95508,-3.49893 2.48697,7.14525 c 2.04433,5.87351 2.6897,6.868 3.62601,5.58752 1.79509,-2.45493 3.90684,-0.899 9.44708,6.96059 16.75064,23.76307 25.5479,46.89526 28.11412,73.92542 2.48922,26.21914 -3.37706,55.29439 -16.62139,82.38121 -7.20664,14.73874 -11.53829,21.10149 -14.05929,20.65163 -11.30144,-2.01666 -15.50076,-0.5569 -18.60852,6.46871 -3.08605,6.97654 -0.39314,13.92587 6.57145,16.95825 3.79917,1.65416 5.65304,1.72512 9.26971,0.3548 z m -9.05004,-6.00597 c -3.36165,-2.64428 -3.69299,-8.86929 -0.63486,-11.92742 4.82377,-4.82377 13,-0.89801 13,6.24187 0,4.06569 -3.56958,7.75813 -7.5,7.75813 -1.22666,0 -3.41597,-0.93266 -4.86514,-2.07258 z m 9.11514,-2.2051 c 1.77268,-1.37164 1.54883,-5.73464 -0.40499,-7.89358 -3.58266,-3.9588 -9.80535,-0.695 -9.16997,4.80965 0.52288,4.52999 5.59488,6.16359 9.57496,3.08393 z m 41.50623,8.63302 c -9.34974,-4.60924 -10.28715,-19.24335 -1.64449,-25.67265 5.19691,-3.86599 14.21446,-3.3827 19.475,1.04375 l 3.14562,2.64686 4.46431,-2.36831 c 6.92836,-3.67549 14.78588,-13.12695 20.37234,-24.50499 7.41532,-15.10289 11.75546,-32.5954 13.71683,-55.28426 l 0.80259,-9.28425 -2.79422,0.61371 c -2.1279,0.46736 -2.79421,0.2414 -2.79421,-0.94761 0,-2.36872 7.72958,-18.59759 8.85776,-18.59759 0.89084,0 8.15245,17.27312 8.14524,19.375 -0.002,0.48125 -1.293,0.617 -2.86967,0.30167 l -2.86668,-0.57334 -0.69948,8.69834 c -1.82708,22.72029 -6.97463,43.30803 -14.7929,59.16459 -4.10388,8.32326 -6.60543,11.93021 -12.21739,17.61607 -3.88129,3.93239 -8.96938,8.11922 -11.30688,9.30406 -3.67723,1.86393 -4.25021,2.58952 -4.25155,5.38393 -0.005,11.04994 -12.40202,18.18254 -22.74222,13.08502 z m 14.26927,-2.3711 c 3.79497,-2.34542 6.4745,-7.36847 6.4745,-12.13709 0,-2.94556 0.53836,-3.63618 4.45357,-5.7132 20.69879,-10.98068 34.80679,-42.78418 38.09804,-85.88395 0.67401,-8.82641 0.81338,-9.25 3.04332,-9.25 l 2.33697,0 -2.1332,-5.75 c -1.17325,-3.1625 -2.39743,-6.067 -2.72039,-6.45445 -0.32296,-0.38744 -2.00953,2.42046 -3.74793,6.23979 -2.82588,6.20858 -2.94646,6.82956 -1.13819,5.8618 3.40387,-1.82169 3.85414,0.0692 2.77351,11.647 -3.79034,40.60966 -15.13794,67.88592 -33.4657,80.44161 -6.47478,4.43564 -8.07679,4.59131 -11.54615,1.12195 -5.13738,-5.13739 -12.13491,-5.35056 -17.84752,-0.54372 -5.53886,4.66065 -5.93072,12.76553 -0.88021,18.20551 4.31369,4.64633 10.91389,5.54316 16.29938,2.21475 z m -12.35119,-5.29869 c -3.17125,-3.37565 -2.951,-8.92944 0.46055,-11.61297 3.65122,-2.87205 6.99159,-2.59998 10.44206,0.8505 3.29556,3.29555 3.56222,4.94028 1.46007,9.0054 -2.45484,4.74712 -8.71747,5.63721 -12.36268,1.75707 z m 8.99695,-1.34054 c 2.55435,-2.31166 2.35028,-6.8663 -0.39377,-8.78831 -2.93731,-2.05737 -4.37057,-1.96362 -6.77749,0.4433 -2.65368,2.65368 -2.55232,6.49973 0.22251,8.4433 2.84547,1.99304 4.66631,1.96729 6.94875,-0.0983 z M 62.17048,292.23443 c -1.7579,-1.81368 -3.19617,-3.70476 -3.19617,-4.20239 0,-0.49763 1.43827,-2.38871 3.19617,-4.20239 l 3.19616,-3.29761 -3.19616,-3.29761 c -1.7579,-1.81368 -3.19617,-3.75041 -3.19617,-4.30383 0,-1.23552 6.24754,-7.39856 7.5,-7.39856 0.49763,0 2.38871,1.43828 4.20239,3.19617 l 3.29761,3.19616 3.29761,-3.19616 c 1.81368,-1.75789 3.75041,-3.19617 4.30383,-3.19617 1.23552,0 7.39856,6.24754 7.39856,7.5 0,0.49763 -1.43828,2.38871 -3.19617,4.20239 l -3.19616,3.29761 3.41159,3.51987 3.41159,3.51987 -4.19556,4.19555 -4.19555,4.19556 -3.51987,-3.41159 -3.51987,-3.41159 -3.29761,3.19616 c -1.81368,1.75789 -3.75041,3.19617 -4.30383,3.19617 -0.55343,0 -2.4445,-1.48392 -4.20239,-3.29761 z m 7.30383,-2.70239 c 1.5808,-1.65 3.33107,-3 3.88948,-3 0.55842,0 2.50634,1.44516 4.32871,3.21148 l 3.3134,3.21147 2.69568,-2.69568 2.69568,-2.69568 -3.21147,-3.3134 c -1.76632,-1.82237 -3.21147,-3.74198 -3.21145,-4.2658 2e-5,-0.52381 1.61231,-2.23884 3.58288,-3.81116 l 3.58286,-2.85877 -2.78,-2.90169 -2.78001,-2.9017 -3.80288,3.71341 -3.80288,3.71342 -3.78233,-3.69335 -3.78233,-3.69335 -2.70807,2.70807 -2.70807,2.70807 3.69335,3.78233 3.69335,3.78233 -3.69585,3.78488 -3.69584,3.78489 2.21512,2.21511 c 1.21831,1.21832 2.48092,2.21512 2.8058,2.21512 0.32488,0 1.88407,-1.35 3.46487,-3 z m 164.69617,2.70239 c -1.75789,-1.81368 -3.19617,-3.70476 -3.19617,-4.20239 0,-0.49763 1.43828,-2.38871 3.19617,-4.20239 l 3.19616,-3.29761 -3.19616,-3.29761 c -1.75789,-1.81368 -3.19617,-3.75041 -3.19617,-4.30383 0,-1.23552 6.24754,-7.39856 7.5,-7.39856 0.49763,0 2.3012,1.35346 4.00793,3.00769 l 3.10315,3.00769 2.88155,-3.00769 c 1.58485,-1.65423 3.38409,-3.00769 3.99829,-3.00769 1.37772,0 7.50908,6.21419 7.50908,7.61052 0,0.55841 -1.35346,2.312 -3.00769,3.89685 l -3.00769,2.88155 3.00769,3.10315 c 1.65423,1.70673 3.00769,3.78095 3.00769,4.60937 0,0.82842 -1.575,3.03278 -3.5,4.89856 l -3.5,3.39233 -3.29761,-3.19616 c -1.81368,-1.75789 -3.75449,-3.19617 -4.31291,-3.19617 -0.55841,0 -2.30868,1.35 -3.88948,3 -1.5808,1.65 -3.15172,3 -3.49092,3 -0.33921,0 -2.05502,-1.48392 -3.81291,-3.29761 z m 7.30383,-2.70239 c 1.5808,-1.65 3.33107,-3 3.88948,-3 0.55842,0 2.50634,1.44516 4.32871,3.21148 l 3.3134,3.21147 2.73421,-2.76543 2.7342,-2.76542 -3.25,-2.93196 c -1.7875,-1.61257 -3.25,-3.47937 -3.25,-4.14844 0,-0.66907 1.35641,-2.61595 3.01424,-4.3264 l 3.01425,-3.10991 -2.52569,-2.37276 -2.5257,-2.37277 -3.49203,3.38461 -3.49204,3.38462 -3.7994,-3.71001 -3.79939,-3.71001 -2.70121,2.81945 -2.70121,2.81946 3.00409,2.8781 c 3.77508,3.61676 3.77604,5.39016 0.005,9.00319 l -2.99923,2.87345 2.17355,2.31364 c 2.75255,2.92996 2.87276,2.91692 6.32492,-0.68636 z m -82.81291,-1.80472 c -3.44012,-3.59071 -3.38249,-5.15486 0.3206,-8.70265 l 3.00769,-2.88155 -3.00769,-3.10315 c -3.72918,-3.84753 -3.76509,-5.40812 -0.20297,-8.82084 3.57553,-3.42557 4.88803,-3.37723 8.70321,0.3206 l 3.10315,3.00769 2.88155,-3.00769 c 3.54779,-3.70309 5.11194,-3.76072 8.70265,-0.3206 3.57469,3.42477 3.53289,5.2411 -0.20297,8.82028 l -3.00769,2.88155 3.00769,3.10315 c 3.72918,3.84753 3.76509,5.40812 0.20297,8.82084 -3.59071,3.44012 -5.15486,3.38249 -8.70265,-0.3206 l -2.88155,-3.00769 -3.10315,3.00769 c -3.84753,3.72918 -5.40812,3.76509 -8.82084,0.20297 z m 11.92343,-5.19528 c 0.55841,0 2.31044,1.35184 3.8934,3.00409 l 2.8781,3.00409 2.81668,-2.69855 2.81668,-2.69855 -3.00769,-3.10315 c -1.65423,-1.70673 -3.00769,-3.5103 -3.00769,-4.00793 0,-0.49763 1.44516,-2.39582 3.21148,-4.21819 l 3.21147,-3.3134 -2.69568,-2.69568 -2.69568,-2.69568 -3.3134,3.21147 c -1.82237,1.76632 -3.72056,3.21148 -4.21819,3.21148 -0.49763,0 -2.39582,-1.44516 -4.21819,-3.21148 l -3.3134,-3.21147 -2.69568,2.69568 -2.69568,2.69568 3.21147,3.3134 c 1.76632,1.82237 3.21148,3.77029 3.21148,4.32871 0,0.55841 -1.35184,2.31044 -3.00409,3.8934 l -3.00409,2.8781 2.69855,2.81668 2.69855,2.81668 3.10315,-3.00769 c 1.70673,-1.65423 3.56003,-3.00769 4.11845,-3.00769 z"
               id="path5996"
               inkscape:connector-curvature="0"
               sodipodi:nodetypes="ssssssssssssssssssssssssscsssssscsscssscssccscscsssscsccsssssssssssssssssssscsssssssscsssssssscssssssssssssssssssssscssscssscscsssscsssssscssssssssssssssssssssssscsssscsssscccccccsssssscccssscccccccccccccsssssscsssscsssscssscssssscsscccssscccccccccsccsccsscssscssscssscsssscccssscccssscccssscccss" />
          </g>
        </g>
      </g>
      <g
         id="g6263"
         transform="translate(-468.57143,-434.28572)">
        <ellipse
           style="opacity:1;fill:#ffffff;fill-opacity:1;fill-rule:nonzero;stroke:#000000;stroke-width:7.15999985;stroke-linejoin:miter;stroke-miterlimit:4;stroke-dasharray:none;stroke-dashoffset:0;stroke-opacity:1"
           id="ellipse6015"
           cx="263.4758"
           cy="283.32397"
           rx="195.71428"
           ry="191.42857" />
        <path
           inkscape:export-ydpi="32.959942"
           inkscape:export-xdpi="32.959942"
           inkscape:export-filename="/Users/pr/yelluw/Icons/custom/256/png/social-media-management.png"
           inkscape:connector-curvature="0"
           id="path4571"
           d="m 188.96617,354.59817 c -1.13409,-2.95541 0.44323,-13.35298 2.70558,-17.83488 2.19725,-4.35299 7.703,-10.72537 9.26673,-10.72537 0.53134,0 11.39321,-4.43796 24.13751,-9.86214 l 23.17143,-9.86215 0,-7.1016 c 0,-5.21932 -1.04181,-9.6285 -3.93065,-16.63525 -3.67159,-8.90533 -3.93254,-10.49716 -3.95938,-24.15291 -0.0263,-13.31851 0.25974,-15.23462 3.21347,-21.53552 3.91787,-8.35762 10.07566,-12.93047 18.79893,-13.96032 19.13136,-2.25859 29.92459,10.31979 29.93554,34.88671 0.005,11.4115 -0.48093,13.70837 -6.18675,29.2385 -1.35395,3.68528 -2.47965,9.60948 -2.50152,13.16492 l -0.0398,6.46442 5.78678,2.57571 c 3.18274,1.41664 14.01011,6.01548 24.06086,10.21966 10.65896,4.4586 19.68484,9.04043 21.65955,10.99507 3.94801,3.9079 7.28573,14.21037 6.74099,20.80717 l -0.38038,4.60536 -75.87206,0.31381 c -68.04616,0.28143 -75.94786,0.11617 -76.60691,-1.60119 z m -30.14245,-10.95015 c -1.90152,-1.90152 -2.23381,-2.92834 -6.75021,-20.85876 -3.29296,-13.07329 -3.21431,-15.72343 0.53964,-18.18312 2.80498,-1.83788 3.28258,-1.84037 6.04352,-0.0313 1.68213,1.10216 3.53311,3.97077 4.21742,6.53604 0.67078,2.51447 2.60969,9.77987 4.30872,16.14534 3.7058,13.88395 3.66213,12.83412 0.65873,15.83753 -2.91473,2.91472 -6.44067,3.13145 -9.01782,0.55431 z m 199.40911,-0.57878 c -5.63707,-2.26827 -4.81463,-6.11557 4.72966,-22.1248 7.70958,-12.93177 9.42051,-15.0623 12.36732,-15.4006 4.36777,-0.5014 6.92742,1.63601 6.92742,5.78465 0,3.58387 -13.38483,27.44046 -17.30936,30.85151 -2.74631,2.387 -2.93176,2.41157 -6.71503,0.88924 z M 123.98378,288.7602 c 0,-5.98082 3.21245,-12.27983 7.11943,-13.95991 1.77973,-0.76529 9.26631,-3.96518 16.63685,-7.11084 10.32286,-4.40568 13.48559,-6.29984 13.76935,-8.24645 0.2026,-1.38989 -1.0309,-6.53207 -2.7411,-11.42709 -5.24232,-15.00466 -3.38247,-30.31632 4.33938,-35.72491 3.60032,-2.52177 12.27294,-2.56274 17.07279,-0.0806 8.40267,4.34519 10.61402,18.93174 5.32598,35.1312 -3.43223,10.51437 -3.71336,13.29328 -1.52284,15.05299 0.83757,0.67282 8.19801,4.07546 16.35655,7.5614 16.24154,6.9396 18.66875,9.38445 18.66875,18.80425 l 0,4.38439 -47.51257,0 -47.51257,0 0,-4.38439 z m 184.23804,-1.74671 c 0.38451,-4.00162 1.50509,-7.10611 3.22631,-8.93826 1.45044,-1.54394 9.47841,-5.71036 17.83994,-9.25871 l 15.20276,-6.45159 0,-4.4493 c 0,-2.44711 -1.09644,-7.56887 -2.43654,-11.38169 -3.37121,-9.59169 -3.24923,-20.70413 0.30456,-27.74616 3.13728,-6.21664 6.75932,-8.44969 13.70556,-8.44969 6.94624,0 10.56828,2.23305 13.70554,8.44969 3.74211,7.41516 3.63883,17.01094 -0.30456,28.29778 -3.39839,9.72693 -3.77378,13.50074 -1.52285,15.309 0.83758,0.67282 8.19801,4.07546 16.35655,7.56139 16.24154,6.93961 18.66875,9.38445 18.66875,18.80425 l 0,4.3844 -47.66757,0 -47.66758,0 0.58913,-6.13111 z"
           style="fill:#f4d425;fill-opacity:1;stroke:#000000;stroke-width:6.10300016;stroke-miterlimit:4;stroke-dasharray:none" />
      </g>
      <g
         id="g6139"
         transform="translate(-922.85714,399.99999)">
        <ellipse
           style="opacity:1;fill:#ffffff;fill-opacity:1;fill-rule:nonzero;stroke:#000000;stroke-width:7.15999985;stroke-linejoin:miter;stroke-miterlimit:4;stroke-dasharray:none;stroke-dashoffset:0;stroke-opacity:1"
           id="ellipse6026"
           cx="263.4758"
           cy="283.32397"
           rx="195.71428"
           ry="191.42857" />
        <g
           style="stroke-width:0.27941066;stroke-miterlimit:4;stroke-dasharray:none"
           transform="matrix(0.35789617,0,0,0.35789617,524.13733,138.32547)"
           inkscape:export-ydpi="30"
           inkscape:export-xdpi="30"
           inkscape:export-filename="/Users/pr/yelluw/Icons/custom/256/png/coding-services-icon.png"
           id="g4338">
          <path
             inkscape:connector-curvature="0"
             id="path4273"
             d="m -1069.5043,635.9331 -7.1139,-5.75947 -0.831,-215.86817 c -0.5388,-139.97744 0.2501,-219.88275 2.244,-227.28747 2.0404,-7.57731 5.6626,-12.59835 10.7663,-14.92371 5.6964,-2.59546 93.28977,-3.50441 337.71411,-3.50441 332.44694,0 338.68379,0.185 345.40082,10.24465 1.21765,1.82359 2.23467,104.60173 2.26005,228.39588 l 0.0461,225.08024 -6.6973,4.69097 c -5.96405,4.17738 -43.37215,4.69095 -341.68624,4.69095 -325.31594,0 -335.19444,-0.16631 -342.10294,-5.75946 z m 680.18294,-7.62341 c 3.59968,-4.92328 4.27679,-40.19025 4.27679,-222.7538 0,-197.60307 -0.44379,-217.39478 -4.98714,-222.41512 -4.77388,-5.27508 -19.16298,-5.51072 -336.50938,-5.51072 -304.25621,0 -331.97551,0.41017 -337.03291,4.98713 -5.2417,4.74367 -5.5108,15.6014 -5.5108,222.41513 0,225.61478 -0.076,224.17263 12.0536,228.56275 2.4861,0.8998 152.7755,1.39478 333.97657,1.10001 322.32492,-0.52439 329.54902,-0.66261 333.73327,-6.38538 z m -625.52234,-34.83141 c -5.8518,-5.85183 -6.0268,-10.04464 -6.0268,-144.42415 l 0,-138.39736 7.9399,-6.2455 c 7.9022,-6.21587 9.2585,-6.2455 285.86593,-6.2455 276.60747,0 277.96374,0.0295 285.86594,6.2455 l 7.93987,6.2455 0,138.39736 c 0,134.37951 -0.17508,138.57232 -6.02679,144.42415 -5.94084,5.94084 -10.04463,6.02678 -287.77902,6.02678 -277.73433,0 -281.83813,-0.0859 -287.77903,-6.02678 z m 570.82272,-7.74873 c 4.15872,-4.15873 4.73533,-20.58925 4.73533,-134.93217 0,-112.96126 -0.621,-131.08346 -4.69095,-136.89415 l -4.69097,-6.69728 -278.3971,0 -278.39713,0 -4.6909,6.69728 c -4.0685,5.80857 -4.691,23.82911 -4.691,135.8008 0,83.23166 1.1084,131.1745 3.1194,134.93217 3.0497,5.69844 9.3749,5.82868 283.04373,5.82868 250.45875,0 280.42273,-0.49844 284.65959,-4.73533 z m -319.64939,-55.47639 c -3.55948,-1.45595 -7.34689,-4.06313 -8.4165,-5.79376 -1.65061,-2.6708 61.25963,-163.6806 65.68154,-168.10251 2.78308,-2.78308 23.03486,5.47205 23.03486,9.38958 0,8.47321 -65.99725,165.99597 -69.78174,166.55556 -2.22552,0.32906 -6.95868,-0.59291 -10.51816,-2.04887 z m 40.59486,-83.34683 c 22.16534,-54.98972 30.17937,-78.10998 27.87389,-80.41546 -2.04119,-2.04118 -4.27272,-2.17893 -6.04436,-0.37309 -4.79572,4.88821 -63.4939,152.58851 -61.75747,155.39817 4.96529,8.03401 11.653,-4.46271 39.92794,-74.60962 z M -843.0803,489.5447 c -27.34654,-12.2345 -50.93768,-24.15518 -52.42476,-26.49041 -1.48708,-2.33523 -1.85915,-7.61117 -0.82683,-11.72427 1.5809,-6.2988 10.08772,-11.12737 53.93147,-30.61206 28.62997,-12.72354 53.74953,-23.12839 55.82124,-23.12195 2.4966,0.009 3.76674,4.96451 3.76674,14.69979 l 0,14.68806 -30.13393,13.10961 c -16.57366,7.2103 -30.13393,13.92592 -30.13393,14.92365 0,0.9977 13.56027,8.0561 30.13393,15.68531 l 30.13393,13.87134 0,13.77145 c 0,11.16911 -0.9965,13.7405 -5.27344,13.60773 -2.90039,-0.0901 -27.64788,-10.17376 -54.99442,-22.40825 z m 53.71446,0.30652 c -0.53904,-0.34139 -15.89638,-7.42853 -34.1274,-15.7492 -18.50291,-8.44473 -33.14732,-16.93753 -33.14732,-19.22321 0,-2.32005 14.69299,-10.58988 33.90067,-19.08075 29.92838,-13.23003 33.90067,-15.85361 33.90067,-22.39047 0,-4.70966 -1.37089,-6.86195 -3.76674,-5.91382 -2.07171,0.81986 -24.51011,10.68881 -49.86311,21.93097 -38.38929,17.0228 -45.94664,21.41431 -45.20089,26.26587 0.66743,4.34203 13.17346,11.32849 49.10975,27.43502 47.39025,21.24014 48.23104,21.48757 49.19437,14.47787 0.53906,-3.92235 0.53906,-7.41089 0,-7.75228 z m 118.04894,8.494 0,-13.77145 30.13393,-13.87134 c 16.57366,-7.62921 30.13393,-14.68761 30.13393,-15.68531 0,-0.99773 -13.56027,-7.71335 -30.13393,-14.92365 l -30.13393,-13.10961 0,-14.68806 c 0,-9.73528 1.27015,-14.69201 3.76674,-14.69979 2.07171,-0.006 27.19126,10.39841 55.82124,23.12195 43.84375,19.48469 52.35056,24.31326 53.93147,30.61206 1.03233,4.1131 0.66024,9.38868 -0.82684,11.72352 -2.94879,4.62987 -100.96132,49.06313 -108.22522,49.06313 -3.2959,0 -4.46739,-3.61131 -4.46739,-13.77145 z m 104.85752,-42.66916 c 0.74479,-4.83321 -6.8609,-9.25039 -45.2009,-26.25132 -25.353,-11.24216 -47.79138,-21.11111 -49.86309,-21.93097 -2.39586,-0.94813 -3.76674,1.20416 -3.76674,5.91382 0,6.53686 3.97228,9.16044 33.90067,22.39047 19.59895,8.66384 33.90067,16.74208 33.90067,19.14864 0,2.39061 -14.39311,10.63483 -33.81009,19.36611 -30.57795,13.74999 -33.81877,15.96276 -33.90067,23.14668 l -0.0907,7.94325 48.96763,-21.95784 c 36.45983,-16.34914 49.19635,-23.44212 49.8631,-27.76884 z M -1012.9306,264.79974 c -6.6583,-5.23744 -7.9399,-8.64211 -7.9399,-21.09376 0,-10.83039 1.6308,-16.47906 6.0268,-20.87503 5.8499,-5.8499 10.0447,-6.02679 142.91746,-6.02679 l 136.89067,0 6.24549,7.93987 c 8.91714,11.3363 8.38359,29.37008 -1.15102,38.90469 l -7.3965,7.39651 -133.82658,0 c -130.82582,0 -134.00462,-0.14004 -141.76642,-6.24549 z m 276.61051,-7.53002 c 5.59038,-5.59038 6.27704,-22.65151 1.11926,-27.80931 -2.70362,-2.70361 -37.28366,-3.61607 -137.03991,-3.61607 l -133.42386,0 -4.8394,7.38594 c -4.8545,7.4088 -3.9165,17.08172 2.4249,25.00803 2.3283,2.91021 33.03071,3.76674 135.01861,3.76674 115.98674,0 132.57968,-0.57461 136.7404,-4.73533 z m 124.17074,7.53002 c -6.65833,-5.23744 -7.93987,-8.64211 -7.93987,-21.09376 0,-23.28937 5.46274,-26.90182 40.68081,-26.90182 35.21806,0 40.6808,3.61245 40.6808,26.90182 0,21.96241 -8.00074,27.33925 -40.6808,27.33925 -20.52772,0 -26.16915,-1.07613 -32.74094,-6.24549 z m 61.18333,-7.09207 c 1.96159,-2.36356 3.14465,-10.16072 2.62903,-17.32701 l -0.9375,-13.02962 -27.41609,-0.86037 c -30.48342,-0.95663 -35.36292,1.44898 -35.36292,17.43403 0,15.28283 5.05108,18.08035 32.64509,18.08035 17.86276,0 25.88136,-1.21154 28.44239,-4.29738 z m 44.28542,7.09207 c -6.65833,-5.23744 -7.93987,-8.64211 -7.93987,-21.09376 0,-23.28937 5.46274,-26.90182 40.68081,-26.90182 35.21806,0 40.6808,3.61245 40.6808,26.90182 0,21.96241 -8.00074,27.33925 -40.6808,27.33925 -20.52772,0 -26.16915,-1.07613 -32.74094,-6.24549 z m 61.60189,-7.59637 c 5.34503,-6.44041 5.09426,-25.03657 -0.38439,-28.50252 -2.40318,-1.52032 -15.47974,-2.78499 -29.05905,-2.81037 -22.12548,-0.0413 -25.17678,0.6494 -29.38058,6.65114 -2.58001,3.68351 -4.69095,8.80589 -4.69095,11.38308 0,2.57718 2.11094,7.69956 4.69095,11.38307 4.20844,6.00836 7.27026,6.69728 29.76496,6.69728 19.26535,0 25.99718,-1.11236 29.05906,-4.80168 z"
             style="fill:#000000;stroke:none;stroke-width:0.27941066;stroke-miterlimit:4;stroke-dasharray:none" />
          <path
             inkscape:connector-curvature="0"
             id="path4275"
             d="m -1060.9441,629.80084 c -3.4106,-4.1084 -4.1688,-39.47382 -4.766,-222.305 -0.443,-135.63634 0.3238,-219.03145 2.0387,-221.70508 2.4176,-3.76943 43.0032,-4.28572 336.90051,-4.28572 183.78352,0 335.22326,1.07143 336.5328,2.38096 1.30952,1.30952 2.38094,101.20952 2.38094,222 0,176.35576 -0.73145,220.35073 -3.71314,223.33333 -2.99371,2.99463 -67.80817,3.88411 -334.5156,4.59074 -309.24591,0.81932 -331.06661,0.55806 -334.85821,-4.00923 z m 622.2715,-36.25308 c 4.73528,-4.73432 5.15803,-15.12652 5.89377,-144.88614 l 0.7926,-139.78599 -9.36403,-5.11386 c -8.81534,-4.81423 -25.60306,-5.11387 -286.50689,-5.11387 -265.74291,0 -277.46595,0.2192 -284.99995,5.3286 l -7.8571,5.3286 0.042,136.09997 c 0.046,148.1126 0.1168,148.79823 15.7492,152.21032 4.6719,1.01974 132.84163,1.66923 284.82171,1.44328 261.113,-0.38814 276.60825,-0.69157 281.42857,-5.51091 z M -729.06946,264.132 c 8.57134,-9.12377 9.28623,-27.44777 1.52374,-39.05553 l -5.25434,-7.85714 -136.42895,0 c -133.69509,0 -136.57969,0.11866 -143.95699,5.92166 -6.0695,4.77423 -7.5282,8.3275 -7.5282,18.33775 0,30.66934 -4.5479,29.78057 153.0733,29.91447 l 131.64481,0.11183 6.92663,-7.37304 z m 185.75366,-0.80062 c 7.66268,-9.46856 7.51617,-32.62597 -0.25563,-40.39776 -4.95583,-4.95583 -9.5238,-5.71429 -34.41557,-5.71429 -26.66349,0 -29.19926,0.49793 -35.71429,7.01299 -10.49211,10.49211 -9.77991,27.80251 1.6126,39.19503 8.56914,8.56914 8.8046,8.61913 35.96992,7.63736 24.66702,-0.89148 27.87874,-1.64864 32.80297,-7.73333 z m 105.71428,0 c 6.59666,-8.15129 7.41546,-30.91218 1.40789,-39.13739 -3.47617,-4.75942 -8.32137,-5.68378 -34.15914,-6.51681 -29.05769,-0.93684 -30.36209,-0.71703 -37.3778,6.2987 -5.56186,5.56184 -7.26943,10.19179 -7.26943,19.71035 0,22.67545 9.20617,28.20055 45.25563,27.16027 24.112,-0.6958 27.21034,-1.4202 32.14285,-7.51512 z"
             style="opacity:1;fill:#f4d425;fill-opacity:1;fill-rule:nonzero;stroke:none;stroke-width:0.27941066;stroke-linejoin:miter;stroke-miterlimit:4;stroke-dasharray:none;stroke-dashoffset:0;stroke-opacity:1" />
          <path
             inkscape:connector-curvature="0"
             id="path4277"
             d="m -824.14286,488.72972 c -35.10948,-15.79542 -59.29859,-28.34971 -61.50655,-31.92225 -1.05754,-1.71115 0.45594,-4.88036 3.3633,-7.0427 8.5453,-6.35552 90.1287,-41.79807 91.97135,-39.95542 4.27394,4.27395 -6.72764,12.59235 -34.78216,26.29913 -16.76098,8.18903 -30.47451,16.63074 -30.47451,18.75935 0,3.53088 56.24367,33.49437 62.87139,33.49437 1.56359,0 2.84289,2.57143 2.84289,5.71429 0,8.19178 -6.41708,7.19105 -34.28571,-5.34677 z"
             style="opacity:1;fill:none;fill-opacity:1;fill-rule:nonzero;stroke:none;stroke-width:0.27941066;stroke-linejoin:miter;stroke-miterlimit:4;stroke-dasharray:none;stroke-dashoffset:0;stroke-opacity:1" />
          <path
             inkscape:connector-curvature="0"
             id="path4279"
             d="m -759.87373,515.50506 c 1.9078,-9.03351 39.50366,-105.55897 52.02496,-133.57143 7.64401,-17.10106 14.37711,-22.37586 10.94114,-8.57143 -6.14532,24.68957 -51.78781,135.98029 -59.23098,144.42373 l -5.54533,6.29056 1.81021,-8.57143 z"
             style="opacity:1;fill:none;fill-opacity:1;fill-rule:nonzero;stroke:none;stroke-width:0.27941066;stroke-linejoin:miter;stroke-miterlimit:4;stroke-dasharray:none;stroke-dashoffset:0;stroke-opacity:1" />
          <path
             inkscape:connector-curvature="0"
             id="path4281"
             d="m -664.14286,496.91796 c 0,-4.45488 7.31169,-9.36953 32.85714,-22.08537 18.07143,-8.99547 32.85714,-18.03772 32.85714,-20.09388 0,-2.05616 -14.78571,-10.84729 -32.85714,-19.53585 -25.12074,-12.0778 -32.85714,-17.09748 -32.85714,-21.31902 0,-3.0369 0.67199,-5.52164 1.49331,-5.52164 3.19304,0 85.94719,37.66449 90.93565,41.3882 7.35006,5.48655 4.4112,8.68214 -18.67815,20.30975 -20.23731,10.19134 -70.02991,32.58777 -72.4504,32.58777 -0.71523,0 -1.30041,-2.57849 -1.30041,-5.72996 z"
             style="opacity:1;fill:none;fill-opacity:1;fill-rule:nonzero;stroke:none;stroke-width:0.27941066;stroke-linejoin:miter;stroke-miterlimit:4;stroke-dasharray:none;stroke-dashoffset:0;stroke-opacity:1" />
        </g>
      </g>
      <g
         id="g6154"
         transform="translate(414.28571,337.14285)">
        <g
           id="g6161"
           transform="translate(-1334.2857,-777.14286)"
           inkscape:export-filename="/Users/pr/yelluw/Icons/custom/256/png/content-production-icon.png"
           inkscape:export-xdpi="57.80397"
           inkscape:export-ydpi="57.80397">
          <ellipse
             transform="translate(-511.42857,197.14285)"
             ry="191.42857"
             rx="195.71428"
             cy="86.181114"
             cx="774.90436"
             id="ellipse6137"
             style="opacity:1;fill:#ffffff;fill-opacity:1;fill-rule:nonzero;stroke:#000000;stroke-width:7.15999985;stroke-linejoin:miter;stroke-miterlimit:4;stroke-dasharray:none;stroke-dashoffset:0;stroke-opacity:1" />
          <g
             transform="translate(26,0)"
             id="g6148">
            <g
               transform="matrix(0.4389719,0,0,0.4389719,-188.31326,38.06619)"
               id="g6133">
              <path
                 style="fill:#f4d425;fill-opacity:1;stroke:#000000;stroke-width:6.30000019;stroke-miterlimit:4;stroke-dasharray:none"
                 d="m 763.68653,844.85269 c -1.70983,-2.06023 -2.18901,-71.90509 -1.80499,-263.10014 l 0.5228,-260.29534 34.49519,-0.56465 34.4952,-0.56465 0,-17.42273 0,-17.42275 6.0093,-6.72557 6.00931,-6.7256 9.60524,0 9.60523,0 6.00931,6.7256 6.00931,6.72557 0,17.47255 0,17.47252 36.03975,0 36.03975,0 0.0303,-15.96046 c 0.0358,-18.83816 2.56197,-24.82692 12.79948,-30.34411 l 7.58293,-4.08656 8.84321,3.05685 c 11.92832,4.12332 16.04366,12.43289 16.04795,32.40353 l 0.004,14.93075 38.0992,0 38.0991,0 0,-17.47252 0,-17.47255 6.0093,-6.72557 6.0094,-6.7256 9.6052,0 9.6052,0 6.0093,6.7256 6.0093,6.72557 0,17.47255 0,17.47252 31.921,0 31.9209,0 0,53.62884 0,53.62886 -14.5831,18.86931 c -8.0208,10.37811 -15.8981,19.06227 -17.5051,19.29813 l -2.9227,0.42883 0,-55.51604 0,-55.51607 -13.9011,0.60895 -13.901,0.60895 -1.0523,11.81739 c -2.8753,32.29048 -40.3272,32.29048 -43.2025,0 l -1.0523,-11.81739 -37.5843,-0.56132 -37.58435,-0.56131 0,8.35026 c 0,35.77419 -42.34284,39.56727 -44.91385,4.02338 l -0.89519,-12.37583 -35.27394,0.56241 -35.27393,0.56241 -1.05228,11.81739 c -2.87532,32.29048 -40.32725,32.29048 -43.20256,0 l -1.05228,-11.81739 -16.47532,0 -16.47531,0 -0.5239,227.05044 -0.52387,227.05048 171.97015,0 171.97013,0 0,-92.72522 0,-92.72517 14.6668,-19.51291 c 8.0667,-10.73211 15.951,-19.51291 17.5205,-19.51291 l 2.8535,0 -0.5303,130.25796 -0.5301,130.258 -204.13652,0.52474 -204.13647,0.52495 -2.32778,-2.80493 z m 407.51167,-127.27226 0,-125.93834 -13.3862,17.74688 -13.3863,17.74686 0,93.77558 0,93.7756 -175.05908,0 -175.05911,0 0.52373,-231.16931 0.52373,-231.16927 17.18977,-0.60137 c 20.72757,-0.72512 22.96881,0.65314 22.96881,14.12488 0,13.23831 6.4933,21.28059 17.18184,21.28059 11.63757,0 17.82821,-7.11666 17.82821,-20.49502 0,-15.49772 0.069,-15.52185 42.48747,-14.87246 l 36.79999,0.56338 1.0297,12.65815 c 2.66386,32.7466 32.97891,31.64955 36.79023,-1.33137 l 1.30894,-11.32678 38.86207,-0.56121 c 44.3381,-0.6403 44.5442,-0.57512 44.5442,14.08472 0,13.23831 6.4933,21.28059 17.1819,21.28059 11.6375,0 17.8282,-7.11666 17.8282,-20.49502 0,-14.1071 2.1944,-15.672 20.9185,-14.91801 l 15.1212,0.60893 1.0297,53.2686 1.0297,53.26863 12.8715,-16.60946 12.8713,-16.60947 0,-50.50656 0,-50.50656 -31.4062,-0.56848 -31.406,-0.56851 -0.5883,-18.75959 -0.5883,-18.7596 -5.1314,-4.8207 c -6.776,-6.36569 -17.8665,-6.47702 -24.1142,-0.24206 l -4.5879,4.57863 -1.0297,19.00166 -1.0297,19.00166 -41.7031,0.55749 -41.70318,0.5575 0,-15.18093 c 0,-44.65441 -34.64645,-49.12029 -37.06946,-4.77819 l -1.0297,18.84413 -39.12888,0 -39.12887,0 -0.5883,-18.75959 -0.58831,-18.7596 -5.13138,-4.8207 c -6.77599,-6.36569 -17.86653,-6.47702 -24.11414,-0.24206 l -4.58792,4.57863 -1.02971,19.00166 -1.0297,19.00166 -34.4952,0.56465 -34.49519,0.56465 0,258.06348 c 0,141.93492 0.61783,258.68121 1.37295,259.4364 0.75511,0.75519 92.03865,1.37301 202.85233,1.37301 l 201.47946,0 0,-125.93838 z m -195.63081,45.10632 c 0.008,-0.28317 1.85483,-11.17232 4.10518,-24.19812 2.25034,-13.02579 4.09765,-23.91495 4.10517,-24.19812 0.008,-0.28316 1.10216,-0.51485 2.43256,-0.51485 4.12779,0 36.7281,25.58866 36.1895,28.40585 -0.8493,4.44175 -46.94162,24.62298 -46.83241,20.50524 z m 29.33301,-14.85927 c 14.3271,-6.68097 14.3501,-5.1085 -0.2389,-16.33443 -17.19032,-13.22768 -16.89115,-13.34855 -20.77354,8.3923 l -3.3754,18.90174 6.2731,-2.71884 c 3.4502,-1.49534 11.60183,-5.20371 18.11474,-8.24077 z m 9.7822,-35.20931 c -10.7604,-8.47235 -19.45221,-16.67599 -19.31505,-18.23029 0.46989,-5.32486 217.90135,-289.38212 221.56285,-289.45472 4.2397,-0.084 41.5239,27.96333 42.4373,31.92371 0.9028,3.91488 -217.3408,290.20615 -221.6315,290.73528 -1.919,0.23665 -12.2931,-6.50163 -23.0536,-14.97398 z m 132.495,-131.91971 c 59.8464,-78.76861 108.5,-143.43286 108.1193,-143.69836 -0.3808,-0.26552 -8.8489,-6.70343 -18.8181,-14.3065 -9.9691,-7.60305 -18.9609,-13.30745 -19.9819,-12.67644 -2.9271,1.80901 -216.2423,282.66688 -216.1263,284.55899 0.1013,1.65416 34.9249,29.27083 36.9656,29.31542 0.5663,0.0123 49.995,-64.42452 109.8414,-143.19311 z m -311.66405,-28.60699 0,-11.34695 97.28458,0.53502 97.28457,0.53501 0.1011,8.23766 c 0.056,4.53071 -0.2649,9.39608 -0.7124,10.81193 -0.6357,2.01124 -21.9349,2.57427 -97.38577,2.57427 l -96.57208,0 0,-11.34694 z m 191.52555,0.0206 0,-7.20795 -94.73307,0 -94.73306,0 0,7.20795 0,7.20795 94.73306,0 94.73307,0 0,-7.20795 z m -191.52555,-53.54478 0,-11.35618 136.43621,0.52955 136.43624,0.52956 0,10.29707 0,10.29708 -136.43624,0.52955 -136.43621,0.52913 0,-11.35619 z m 269.78335,0 0,-7.20795 -133.86199,0 -133.86194,0 0,7.20795 0,7.20795 133.86194,0 133.86199,0 0,-7.20795 z m -269.78335,-51.48536 0,-11.35618 136.43621,0.52955 136.43624,0.52956 0,10.29707 0,10.29708 -136.43624,0.52955 -136.43621,0.52913 0,-11.35619 z m 269.78335,-0.0144 0,-7.22299 -133.34714,0.52989 -133.34708,0.52946 -0.64534,6.69309 -0.64534,6.6931 133.99242,0 133.99248,0 0,-7.22296 z m 144.9194,-41.29981 c -24.4644,-18.74376 -24.0241,-17.35662 -10.9796,-34.58807 23.883,-31.54875 73.1234,-11.94668 55.2104,21.97865 -15.7168,29.76636 -20.1777,31.03805 -44.2308,12.60942 z m 27.7508,3.2089 c 16.2774,-22.0166 17.6797,-27.06198 10.7009,-38.50728 -6.4264,-10.53967 -21.0282,-15.86849 -31.9736,-11.6684 -1.8673,0.7166 -7.9426,7.30983 -13.5005,14.65162 l -10.1054,13.34872 17.966,14.0834 c 20.7354,16.25455 20.8517,16.28954 26.9126,8.09194 z"
                 id="path6088"
                 inkscape:connector-curvature="0" />
              <path
                 style="opacity:1;fill:#f4d425;fill-opacity:1;fill-rule:nonzero;stroke:#000000;stroke-width:18;stroke-linejoin:miter;stroke-miterlimit:4;stroke-dasharray:none;stroke-dashoffset:0;stroke-opacity:1"
                 d="m 1131.6827,951.79205 c -7.0715,-5.59491 -13.959,-11.24853 -15.3056,-12.56357 -1.3467,-1.31503 20.6168,-33.04632 48.8077,-70.51396 88.9461,-118.21556 158.1259,-208.0886 160.9371,-209.077 2.6258,-0.9232 31.275,18.64061 31.275,21.35685 0,1.26161 -51.0929,69.52813 -140.8316,188.1686 -21.3951,28.28571 -45.7106,60.69432 -54.0343,72.01913 -8.3237,11.32481 -15.7769,20.63375 -16.5626,20.68655 -0.7857,0.0529 -7.2143,-4.48168 -14.2857,-10.0766 z"
                 id="path6131"
                 inkscape:connector-curvature="0"
                 transform="translate(-108.57143,-242.85714)" />
            </g>
          </g>
        </g>
        <g
           id="g6272"
           inkscape:export-filename="/Users/pr/yelluw/Icons/custom/256/png/digital-marketing-icon.png"
           inkscape:export-xdpi="57.803967"
           inkscape:export-ydpi="57.803967">
          <ellipse
             ry="191.42857"
             rx="195.71428"
             cy="-10.3903"
             cx="935.19006"
             id="ellipse6261"
             style="opacity:1;fill:#f4d425;fill-opacity:1;fill-rule:nonzero;stroke:#000000;stroke-width:7.15999985;stroke-linejoin:miter;stroke-miterlimit:4;stroke-dasharray:none;stroke-dashoffset:0;stroke-opacity:1"
             transform="translate(-414.28571,-337.14285)" />
          <path
             sodipodi:nodetypes="sscccsscccsscsscsssscccsssssccssssscccccccccccssscssscsccsssssssssssssssccsssscsssssssssscsscssssscssscccccccsssssssssss"
             inkscape:connector-curvature="0"
             id="path6250"
             d="m 459.62868,-217.42226 c -2.34179,-1.23677 -5.71108,-4.15393 -7.48734,-6.48255 l -3.22954,-4.23386 -0.30386,-117.62089 -0.30387,-117.62088 3.31623,-5.22915 c 2.00117,-3.15551 5.09078,-6.10979 7.7912,-7.44992 l 4.47496,-2.2208 54.79968,0 54.79968,0 4.78826,3.169 c 2.63354,1.74296 5.8352,5.2212 7.11481,7.72942 l 2.32654,4.56042 0,30.37919 c 0,34.56586 -0.34559,33.21053 7.07868,27.76061 3.0757,-2.25779 5.65249,-3.93132 5.72616,-3.71898 0.66978,1.93022 10.97302,81.14991 10.60689,81.55434 -0.2666,0.2945 -5.1772,-1.12928 -10.91245,-3.16395 -13.67134,-4.85011 -12.49928,-9.36247 -12.49928,48.12147 0,58.86124 0.0537,58.5664 -11.76105,64.62534 l -4.27372,2.1917 -53.8971,-0.0509 -53.8971,-0.0509 z m 62.84815,-7.30103 c 13.61554,-5.68895 10.28695,-24.90538 -4.31402,-24.90538 -14.93117,0 -18.17551,19.61407 -4.16822,25.19954 3.86473,1.54107 4.11029,1.53256 8.48224,-0.29416 z m 57.17533,-73.19048 0,-39.06991 -8.93114,-2.97434 c -4.91211,-1.63589 -10.08578,-2.97435 -11.49703,-2.97435 -2.9896,0 -2.98597,0.0126 -5.44025,-18.82005 -2.26464,-17.37742 -2.32844,-16.58463 1.40048,-17.40363 1.74768,-0.38386 7.83834,-3.94363 13.53479,-7.91062 l 10.35719,-7.21271 0,-20.11441 0,-20.11442 -61.05056,0 -61.05056,0 -0.29516,87.83218 -0.29518,87.83218 61.63371,0 61.63371,0 z m -40.0662,14.57047 c -2.13163,-2.26902 -9.46539,-29.71303 -9.46539,-35.42091 0,-0.7996 -1.12677,-3.70994 -2.50392,-6.46742 -3.2622,-6.53191 -0.27358,-8.20779 15.01006,-8.41689 l 5.0188,-0.0687 -0.91762,2.01582 c -0.50469,1.10869 -1.11877,4.88187 -1.36462,8.3848 -0.42251,6.01989 0.26303,9.51434 6.08078,30.99575 l 1.69631,6.26351 -1.74532,2.6637 c -2.36181,3.60457 -8.44567,3.63049 -11.80908,0.0503 z m -18.98266,-53.14432 c -0.96049,-0.96049 -2.41932,-7.63425 -3.5881,-16.41455 -1.08325,-8.13779 -2.2027,-15.90913 -2.48767,-17.26965 -1.02443,-4.89085 2.64184,-7.13243 13.86519,-8.47725 5.70189,-0.68323 11.48022,-1.47584 12.84074,-1.76137 5.50271,-1.15484 7.13257,2.28795 9.67802,20.44293 2.66929,19.03839 2.30333,21.16241 -3.81442,22.13895 -20.89629,3.33554 -24.32559,3.5091 -26.49376,1.34094 z m -12.50531,-4.72046 c -8.87247,-4.82165 -9.01662,-24.1003 -0.21021,-28.11277 3.34073,-1.52214 3.22876,-1.81934 4.95136,13.14167 0.72946,6.33544 1.60309,12.68526 1.9414,14.11074 0.73386,3.09211 -1.94192,3.43662 -6.68255,0.86036 z m 26.58429,-112.82711 c 1.90712,-2.29794 0.50656,-5.99801 -2.58404,-6.82655 -6.39816,-1.71526 -25.54175,-1.50415 -28.59577,-0.0273 -8.07825,3.0437 -4.57892,7.4342 -0.4198,8.17534 l 14.84246,0.35106 c 12.027,0.28446 15.67059,-0.36334 16.75715,-1.67258 z m 111.64008,131.8568 c -14.30722,-7.26912 -16.584,-9.64043 -12.46133,-12.97877 l 2.51447,-2.03609 13.82386,7.20955 c 14.10299,7.35512 15.95122,8.98678 13.88913,12.26167 -1.94797,3.09367 -3.84017,2.61904 -17.76613,-4.45636 z m -30.38765,-0.0234 c -1.03969,-1.68226 -12.19816,-86.43534 -11.82878,-89.84443 0.35006,-3.23086 6.1878,-4.9266 7.20525,-2.09296 1.1615,3.23492 12.19451,90.06723 11.63071,91.53647 -0.69272,1.80524 -5.95326,2.10621 -7.00718,0.40092 z m 31.99462,-25.01095 c -16.03855,-4.31644 -18.9676,-6.35838 -14.92281,-10.40316 l 1.75575,-1.75576 15.11956,3.75943 c 8.31573,2.0677 16.20077,4.63497 17.52226,5.70507 l 2.40274,1.94561 -1.34576,2.51459 c -1.71156,3.19807 -2.26418,3.15055 -20.53174,-1.76578 z m -26.14604,-12.00308 c -3.47701,-10.55774 -2.75481,-21.35261 1.33238,-19.91522 6.62278,2.32912 7.82252,15.79862 1.76261,19.7889 l -2.57761,1.69729 z m 12.37607,-12.06448 c -0.40407,-1.053 -0.20692,-2.75121 0.43811,-3.7738 l 1.17279,-1.85924 17.15292,0 17.15291,0 0,3.45568 0,3.4557 -17.59103,0.3181 -17.59101,0.31811 z m -6.4155,-14.36052 c -5.99439,-3.50344 -3.3272,-5.77338 17.97599,-15.29852 18.45694,-8.25252 19.33919,-8.49865 21.43063,-5.97864 3.04008,3.66308 0.20645,5.92676 -17.11884,13.67563 -21.12963,9.45039 -19.86335,9.0185 -22.28778,7.60153 z m -7.09077,-20.52592 c -3.23558,-3.57528 -1.23801,-5.59581 25.46586,-25.75853 2.51924,-1.90216 6.10571,0.19158 6.06751,3.54214 -0.0692,6.07709 -28.20195,25.89757 -31.53337,22.21639 z"
             style="fill:#000000;fill-opacity:1;stroke:none;stroke-width:1.50000012;stroke-miterlimit:4;stroke-dasharray:none" />
        </g>
        <g
           id="g6358"
           transform="matrix(0.81283649,0,0,0.81283649,-123.91379,502.47294)"
           style="stroke-width:0.24605195;stroke-miterlimit:4;stroke-dasharray:none">
          <g
             id="g6396">
            <g
               id="g6408"
               inkscape:export-filename="/Users/pr/yelluw/Icons/custom/256/png/sales-automation-icon.png"
               inkscape:export-xdpi="57.803967"
               inkscape:export-ydpi="57.803967">
              <g
                 style="fill:#f4d425;fill-opacity:1"
                 transform="matrix(1.2302597,0,0,1.2302597,-389.02486,-262.46562)"
                 id="g6328">
                <ellipse
                   ry="191.42857"
                   rx="195.71428"
                   cy="283.32397"
                   cx="263.4758"
                   id="ellipse6330"
                   style="opacity:1;fill:#f4d425;fill-opacity:1;fill-rule:nonzero;stroke:#000000;stroke-width:7.15999985;stroke-linejoin:miter;stroke-miterlimit:4;stroke-dasharray:none;stroke-dashoffset:0;stroke-opacity:1" />
              </g>
              <g
                 transform="translate(2.4605195,2.4605195)"
                 id="g6403">
                <path
                   style="fill:#000000;fill-opacity:1;stroke:#000000;stroke-width:0.24605195;stroke-miterlimit:4;stroke-dasharray:none"
                   d="m -160.29033,209.17807 c 0,-14.48457 -15.04147,-20.9156 -27.45447,-11.73829 -10.42675,7.70885 -10.25787,7.76408 -26.47611,-8.65818 -16.15443,-16.35762 -16.37359,-17.03161 -8.32416,-25.59982 10.17071,-10.82623 3.12074,-28.15191 -11.45527,-28.15191 -10.79436,0 -10.79436,0 -10.79436,-24.53353 0,-24.53353 0,-24.53353 10.39891,-24.53353 15.46995,0 22.35299,-14.26078 12.62536,-26.15814 -8.8486,-10.82225 -8.62635,-11.62088 7.72835,-27.77244 16.63357,-16.426949 16.35698,-16.34983 26.8803,-7.49504 11.94632,10.05217 26.87145,3.00945 26.87145,-12.679839 0,-10.398912 0,-10.398912 24.53353,-10.398912 24.53352,0 24.53352,0 24.53352,10.794365 0,14.576006 17.325692,21.625986 28.151922,11.455266 8.65554,-8.131458 9.68677,-7.791312 25.77866,8.503 16.27693,16.48165 16.11275,15.97253 8.47933,26.29728 -9.17731,12.41299 -2.74628,27.45446 11.73829,27.45446 15.9906,0 16.47126,48.21335 0.49432,49.58399 -14.02006,1.20277 -21.45609,17.98219 -12.292,27.73693 8.02543,8.54267 7.667,9.61299 -8.59879,25.67672 -16.33038,16.12755 -17.043,16.36288 -25.49788,8.41994 -9.75472,-9.16409 -26.534162,-1.72806 -27.736932,12.292 -1.37063,15.97694 -49.58397,15.49628 -49.58397,-0.49432 z m 48.47312,-42.94441 c 48.074082,-20.08169 48.074082,-91.39295 0,-111.47464 -40.00214,-16.70985 -83.67122,12.00863 -83.85057,55.14339 -0.1829,43.98862 43.36382,73.24354 83.85057,56.33125 z M 4.6294932,130.07004 c -7.3699799,-1.72004 -8.5581399,-3.52029 -7.2237599,-10.94506 0.22489,-1.25133 10.24285,-1.70587 22.2621587,-1.01008 74.01481,4.28465 112.860158,-76.86304 62.79468,-131.177688 -27.94195,-30.313406 -81.0889287,-32.460084 -108.00801,-4.36259 -7.37173,7.6944235 -7.432,7.9800265 -1.68346,7.9800265 4.14458,0 5.96189,1.661842 5.96189,5.4518955 0,3.49825996 -1.81731,5.451895 -5.07144,5.451895 -2.78927,0 -10.65131,0.764808 -17.47117,1.699571 -12.3997,1.699574 -12.3997,1.699574 -13.32871,-16.361402 -0.92897,-18.060978 -0.92897,-18.060978 6.56738,-18.055259 4.123,0.0033 7.49636,1.252736 7.49636,2.776871 0,1.524132 6.28549,-1.552515 13.96778,-6.836993 C 18.263482,-67.903802 79.969612,-53.447488 107.10303,-3.407972 144.08602,64.79613 80.398292,147.75325 4.6294932,130.07004 Z M 3.6546133,97.87967 c -7.48057,-3.26439 -8.9239603,-5.19088 -7.90048,-10.54485 1.3551,-7.0888 -2.6169903,-10.06071 -14.1679213,-10.60037 -9.42017,-0.44012 -17.28033,-19.61686 -10.17125,-24.81514 6.39085,-4.6731 5.82208,-14.26578 -0.97373,-16.42268 -9.01784,-2.86216 -0.78851,-25.860349 9.25347,-25.860349 8.28985,0 12.879091,-5.41896 10.9232505,-12.898112 -2.4917805,-9.528577 19.7107605,-19.893186 25.3543195,-11.835909 5.0988,7.2795675 13.67506,7.2632005 15.99002,-0.0305 2.94899,-9.291482 29.1171,-1.166836 26.64835,8.27375 -2.06289,7.888524 3.8335,14.067798 11.57074,12.125871 5.3322,-1.338296 7.23919,0.215077 12.19889,9.936946 5.70312,11.179023 4.66453,16.027753 -3.46871,16.193803 -4.44229,0.0907 -1.70961,10.50289 3.699,14.09407 8.81642,5.85388 2.28336,26.83688 -8.35571,26.83688 -9.72624,0 -13.92242,4.62622 -11.04968,12.18206 3.45671,9.09186 -19.96817,20.82176 -24.53618,12.28637 -3.72206,-6.95474 -12.58286,-6.9194 -16.32084,0.0651 -3.385,6.32491 -6.17466,6.47609 -18.6935387,1.01306 z M 44.372582,67.68244 C 58.619602,59.26651 63.561992,42.78536 56.378442,27.64714 45.549482,4.826808 10.672973,3.762352 -0.77625674,25.90274 -15.749688,54.85816 16.134512,84.36307 44.372582,67.68244 Z"
                   id="path6300"
                   inkscape:connector-curvature="0"
                   sodipodi:nodetypes="ssssssssssssssssssssssssssssssssssssscsssssssssssssssssssssssssss" />
                <text
                   xml:space="preserve"
                   style="font-style:normal;font-weight:normal;font-size:94.53557587px;line-height:125%;font-family:sans-serif;letter-spacing:0px;word-spacing:0px;fill:#000000;fill-opacity:1;stroke:none;stroke-width:0.24605195;stroke-linecap:butt;stroke-linejoin:miter;stroke-miterlimit:4;stroke-dasharray:none;stroke-opacity:1"
                   x="-166.31596"
                   y="139.97668"
                   id="text6324"
                   sodipodi:linespacing="125%"><tspan
                     sodipodi:role="line"
                     id="tspan6326"
                     x="-166.31596"
                     y="139.97668">$</tspan></text>
              </g>
            </g>
          </g>
        </g>
      </g>
    </g>
  </g>
</svg>
